<svg xmlns="http://www.w3.org/2000/svg" width="410" height="404" viewBox="0 0 410 404" fill="none">
  <path d="M399.641 59.5246L215.643 388.545C211.844 395.338 201.853 395.467 197.867 388.794L10.5817 59.532C6.12669 51.7312 12.5662 42.0393 21.3134 43.3625L205.223 71.1312C206.398 71.3087 207.593 71.3057 208.768 71.1213L388.072 43.4284C396.769 42.0972 403.258 51.6453 398.896 59.4715L399.641 59.5246Z" fill="url(#paint0_linear)"/>
  <path d="M292.965 1.57405L156.801 25.6318C155.563 25.8487 154.614 26.8099 154.4 28.0474L132.632 153.597C132.283 155.61 134.003 157.35 136.031 156.999L173.07 150.545C175.233 150.177 177.186 151.96 176.791 154.132L164.677 221.676C164.27 223.915 166.345 225.868 168.561 225.333L191.644 219.766C193.872 219.229 195.951 221.2 195.532 223.435L176.274 326.673C175.57 330.405 180.585 332.466 182.756 329.266L184.451 326.752L311.166 103.604C312.321 101.6 310.702 99.166 308.415 99.5562L270.629 105.948C268.394 106.331 266.488 104.311 267.048 102.104L298.852  -0.0002C299.412 -2.20776 297.506 -4.22731 295.271 -3.84365L292.965  -0.0002V1.57405Z" fill="url(#paint1_linear)"/>
  <defs>
    <linearGradient id="paint0_linear" x1="6.00017" y1="32.9999" x2="235" y2="344" gradientUnits="userSpaceOnUse">
      <stop stop-color="#41D1FF"/>
      <stop offset="1" stop-color="#BD34FE"/>
    </linearGradient>
    <linearGradient id="paint1_linear" x1="194.651" y1="8.81818" x2="236.076" y2="292.989" gradientUnits="userSpaceOnUse">
      <stop stop-color="#FFEA83"/>
      <stop offset="0.0833333" stop-color="#FFDD35"/>
      <stop offset="1" stop-color="#FFA800"/>
    </linearGradient>
  </defs>
</svg>

